0
SECTION
2
HEADER
9
$INSUNITS
70
4
9
$ACADVER
1
AC1014
9
$HANDSEED
5
FFFF
0
ENDSEC
0
SECTION
2
TABLES
0
TABLE
2
VPORT
5
8
100
AcDbSymbolTable
0
ENDTAB
0
TABLE
2
LTYPE
5
5
100
AcDbSymbolTable
0
LTYPE
5
14
100
AcDbSymbolTableRecord
100
AcDbLinetypeTableRecord
2
BYBLOCK
70
0
0
LTYPE
5
15
100
AcDbSymbolTableRecord
100
AcDbLinetypeTableRecord
2
BYLAYER
70
0
0
ENDTAB
0
TABLE
2
LAYER
5
2
100
AcDbSymbolTable
70
2
0
LAYER
5
50
100
AcDbSymbolTableRecord
100
AcDbLayerTableRecord
2
0
70
0
6
CONTINUOUS
0
ENDTAB
0
TABLE
2
STYLE
5
3
100
AcDbSymbolTable
70
1
0
STYLE
5
11
100
AcDbSymbolTableRecord
100
AcDbTextStyleTableRecord
2
STANDARD
70
0
0
ENDTAB
0
TABLE
2
VIEW
5
6
100
AcDbSymbolTable
70
0
0
ENDTAB
0
TABLE
2
UCS
5
7
100
AcDbSymbolTable
70
0
0
ENDTAB
0
TABLE
2
APPID
5
9
100
AcDbSymbolTable
70
2
0
APPID
5
12
100
AcDbSymbolTableRecord
100
AcDbRegAppTableRecord
2
ACAD
70
0
0
ENDTAB
0
TABLE
2
DIMSTYLE
5
A
100
AcDbSymbolTable
70
1
0
ENDTAB
0
TABLE
2
BLOCK_RECORD
5
1
100
AcDbSymbolTable
70
1
0
BLOCK_RECORD
5
1F
100
AcDbSymbolTableRecord
100
AcDbBlockTableRecord
2
*MODEL_SPACE
0
BLOCK_RECORD
5
1B
100
AcDbSymbolTableRecord
100
AcDbBlockTableRecord
2
*PAPER_SPACE
0
ENDTAB
0
ENDSEC
0
SECTION
2
BLOCKS
0
BLOCK
5
20
100
AcDbEntity
100
AcDbBlockBegin
2
*MODEL_SPACE
0
ENDBLK
5
21
100
AcDbEntity
100
AcDbBlockEnd
0
BLOCK
5
1C
100
AcDbEntity
100
AcDbBlockBegin
2
*PAPER_SPACE
0
ENDBLK
5
1D
100
AcDbEntity
100
AcDbBlockEnd
0
ENDSEC
0
SECTION
2
ENTITIES
0
ARC
5
100
100
AcDbEntity
8
0
100
AcDbCircle
10
1.7763568394002505e-14
20
0
30
0
40
158.74999999999997
210
0
220
0
230
1
100
AcDbArc
50
281.53695903281556
51
349.24124201777585
0
ARC
5
101
100
AcDbEntity
8
0
100
AcDbCircle
10
149.72109375000002
20
-28.449149131453989
30
0
40
6.349999999999981
210
0
220
0
230
1
100
AcDbArc
50
-10.75875798222433
51
84.620621008888108
0
ARC
5
102
100
AcDbEntity
8
0
100
AcDbCircle
10
152.40000000000001
20
0
30
0
40
22.225000000000005
210
0
220
0
230
1
100
AcDbArc
50
95.379378991112091
51
264.62062100888795
0
ARC
5
103
100
AcDbEntity
8
0
100
AcDbCircle
10
149.72109375000002
20
28.449149131453986
30
0
40
6.3499999999999819
210
0
220
0
230
1
100
AcDbArc
50
-84.620621008888108
51
10.758757982224422
0
ARC
5
104
100
AcDbEntity
8
0
100
AcDbCircle
10
-1.7763568394002505e-14
20
-8.8817841970012523e-15
30
0
40
158.75000000000006
210
0
220
-0
230
1
100
AcDbArc
50
10.758757982224184
51
258.4630409671845
0
LINE
5
105
100
AcDbEntity
8
0
100
AcDbLine
10
31.75
20
-37.02130657015595
30
0
11
31.75
21
-155.542598666732
31
0
0
ARC
5
106
100
AcDbEntity
8
0
100
AcDbCircle
10
25.399999999999999
20
-37.02130657015595
30
0
40
6.3499999999999979
210
0
220
0
230
1
100
AcDbArc
50
0
51
90
0
LINE
5
107
100
AcDbEntity
8
0
100
AcDbLine
10
15.875
20
-30.671306570155949
30
0
11
25.399999999999999
21
-30.671306570155949
31
0
0
ARC
5
108
100
AcDbEntity
8
0
100
AcDbCircle
10
15.874999999999996
20
-27.496306570155955
30
0
40
3.1749999999999967
210
0
220
0
230
1
100
AcDbArc
50
180
51
270.00000000000006
0
LINE
5
109
100
AcDbEntity
8
0
100
AcDbLine
10
12.699999999999999
20
-19.050000000000001
30
0
11
12.699999999999999
21
-27.496306570155951
31
0
0
ARC
5
110
100
AcDbEntity
8
0
100
AcDbCircle
10
6.3499999999999996
20
-19.050000000000001
30
0
40
6.3499999999999996
210
0
220
0
230
1
100
AcDbArc
50
0
51
90.000000000000014
0
LINE
5
111
100
AcDbEntity
8
0
100
AcDbLine
10
-6.3499999999999996
20
-12.699999999999999
30
0
11
6.3499999999999996
21
-12.699999999999999
31
0
0
ARC
5
112
100
AcDbEntity
8
0
100
AcDbCircle
10
8.8817841970012523e-15
20
5.5511151231257827e-16
30
0
40
31.749999999999993
210
0
220
0
230
1
100
AcDbArc
50
-60.000000000000028
51
240.00000000000003
0
ARC
5
113
100
AcDbEntity
8
0
100
AcDbCircle
10
6.2172489379008766e-14
20
-1.4988010832439613e-14
30
0
40
19.049999999999947
210
0
220
0
230
1
100
AcDbArc
50
-33.557309761920877
51
0
0
ARC
5
114
100
AcDbEntity
8
0
100
AcDbCircle
10
8.8817841970012523e-15
20
2.2204460492503131e-15
30
0
40
19.049999999999997
210
0
220
0
230
1
100
AcDbArc
50
0
51
90.000000000000057
0
LINE
5
115
100
AcDbEntity
8
0
100
AcDbLine
10
0.50800000000000711
20
1.2037062152420221e-32
30
0
11
19.050000000000001
21
-1.2037062152420221e-32
31
0
0
LINE
5
116
100
AcDbEntity
8
0
100
AcDbLine
10
-1.2058804096065641e-16
20
-9.5250000000000004
30
0
11
-3.9424483352713795e-15
21
-0.50799999999999956
31
0
0
LINE
5
117
100
AcDbEntity
8
0
100
AcDbLine
10
-3.8142067288869045e-15
20
0.50800000000000001
30
0
11
-3.5236570605778894e-15
21
19.050000000000001
31
0
0
LINE
5
118
100
AcDbEntity
8
0
100
AcDbLine
10
-0.50799999999999301
20
1.2037062152420221e-32
30
0
11
-19.050000000000001
21
1.2037062152420221e-32
31
0
0
ARC
5
119
100
AcDbEntity
8
0
100
AcDbCircle
10
1.7763568394002505e-14
20
7.7715611723760958e-15
30
0
40
19.050000000000018
210
0
220
0
230
1
100
AcDbArc
50
180
51
213.55730976192078
0
LINE
5
120
100
AcDbEntity
8
0
100
AcDbLine
10
-15.875
20
-10.53028370937842
30
0
11
-15.875
21
-27.496306570155951
31
0
0
ARC
5
121
100
AcDbEntity
8
0
100
AcDbCircle
10
4.4408920985006262e-15
20
3.3306690738754696e-15
30
0
40
19.049999999999997
210
0
220
0
230
1
100
AcDbArc
50
90.000000000000014
51
180
0
LINE
5
122
100
AcDbEntity
8
0
100
AcDbLine
10
-34.924999999999997
20
-27.496306570156001
30
0
11
-34.924999999999997
21
-45.236786744860702
31
0
0
ARC
5
123
100
AcDbEntity
8
0
100
AcDbCircle
10
1.1102230246251565e-14
20
-2.2204460492503131e-15
30
0
40
44.450000000000017
210
0
220
0
230
1
100
AcDbArc
50
-38.213210701738184
51
218.21321070173826
0
ARC
5
124
100
AcDbEntity
8
0
100
AcDbCircle
10
1.1102230246251565e-14
20
-2.2204460492503131e-15
30
0
40
57.150000000000006
210
0
220
0
230
1
100
AcDbArc
50
-52.330113035670365
51
232.33011303567042
0
LINE
5
125
100
AcDbEntity
8
0
100
AcDbLine
10
-34.924999999999997
20
-88.616064429650692
30
0
11
-34.924999999999997
21
-58.651626416067998
31
0
0
ARC
5
126
100
AcDbEntity
8
0
100
AcDbCircle
10
6.93889390390723e-15
20
0
30
0
40
68.262500000000003
210
-0
220
0
230
1
100
AcDbArc
50
-59.227675232054814
51
239.22767523205479
0
ARC
5
127
100
AcDbEntity
8
0
100
AcDbCircle
10
6.93889390390723e-15
20
0
30
0
40
95.25
210
-0
220
0
230
1
100
AcDbArc
50
-68.489811733112518
51
248.4898117331125
0
ARC
5
128
100
AcDbEntity
8
0
100
AcDbCircle
10
6.93889390390723e-15
20
0
30
0
40
146.05000000000004
210
0
220
-0
230
1
100
AcDbArc
50
10.71523102097149
51
256.16477638596194
0
ARC
5
129
100
AcDbEntity
8
0
100
AcDbCircle
10
6.93889390390723e-15
20
0
30
0
40
146.04999999999998
210
-0
220
0
230
1
100
AcDbArc
50
283.835223614038
51
349.28476897902846
0
LINE
5
130
100
AcDbEntity
8
0
100
AcDbLine
10
34.924999999999997
20
-141.81271760670819
30
0
11
34.924999999999997
21
-88.616064429650606
31
0
0
ARC
5
131
100
AcDbEntity
8
0
100
AcDbCircle
10
152.40000000000001
20
2.2204460492503131e-15
30
0
40
28.574999999999996
210
0
220
0
230
1
100
AcDbArc
50
108.14015998964491
51
251.85984001035504
0
ARC
5
132
100
AcDbEntity
8
0
100
AcDbCircle
10
-1.6590728790788489e-10
20
8.3867135458604025e-10
30
0
40
158.7500000008549
210
0
220
0
230
1
100
AcDbArc
50
280.75875798222654
51
281.53695903281289
0
ARC
5
133
100
AcDbEntity
8
0
100
AcDbCircle
10
28.449149131454
20
-149.72109374999999
30
0
40
6.3499999999999988
210
0
220
0
230
1
100
AcDbArc
50
185.37937899111208
51
280.75875798222427
0
ARC
5
134
100
AcDbEntity
8
0
100
AcDbCircle
10
0
20
-152.40000000000001
30
0
40
22.225000000000001
210
0
220
-0
230
1
100
AcDbArc
50
5.3793789911120262
51
174.62062100888798
0
ARC
5
135
100
AcDbEntity
8
0
100
AcDbCircle
10
-28.449149131454
20
-149.72109374999999
30
0
40
6.3499999999999979
210
0
220
0
230
1
100
AcDbArc
50
259.24124201777573
51
354.62062100888789
0
ARC
5
136
100
AcDbEntity
8
0
100
AcDbCircle
10
-1.7129853091546465e-10
20
-8.5936591176505317e-10
30
0
40
158.74999999912376
210
0
220
0
230
1
100
AcDbArc
50
258.46304096718308
51
259.24124201777892
0
LINE
5
137
100
AcDbEntity
8
0
100
AcDbLine
10
-31.75
20
-155.542598666732
30
0
11
-31.75
21
-37.021306570155943
31
0
0
ARC
5
138
100
AcDbEntity
8
0
100
AcDbCircle
10
-25.399999999999999
20
-37.02130657015595
30
0
40
6.3499999999999979
210
0
220
-0
230
1
100
AcDbArc
50
90
51
180
0
LINE
5
139
100
AcDbEntity
8
0
100
AcDbLine
10
-25.399999999999999
20
-30.671306570155949
30
0
11
-15.875
21
-30.671306570155949
31
0
0
ARC
5
140
100
AcDbEntity
8
0
100
AcDbCircle
10
-15.874999999999996
20
-27.496306570155955
30
0
40
3.1749999999999945
210
0
220
0
230
1
100
AcDbArc
50
-90.000000000000057
51
0
0
LINE
5
141
100
AcDbEntity
8
0
100
AcDbLine
10
-12.699999999999999
20
-27.496306570155951
30
0
11
-12.699999999999999
21
-19.050000000000001
31
0
0
ARC
5
142
100
AcDbEntity
8
0
100
AcDbCircle
10
-6.3499999999999996
20
-19.050000000000001
30
0
40
6.3499999999999996
210
0
220
-0
230
1
100
AcDbArc
50
90
51
180
0
CIRCLE
5
143
100
AcDbEntity
8
0
100
AcDbCircle
10
6.93889390390723e-15
20
0
30
0
40
0.50800000000000001
210
0
220
0
230
1
0
CIRCLE
5
144
100
AcDbEntity
8
0
100
AcDbCircle
10
-27.0764
20
0
30
0
40
1.6764000000000001
210
-0
220
0
230
1
0
CIRCLE
5
145
100
AcDbEntity
8
0
100
AcDbCircle
10
-39.776400000000002
20
0
30
0
40
1.6764000000000001
210
-0
220
0
230
1
0
CIRCLE
5
146
100
AcDbEntity
8
0
100
AcDbCircle
10
-51.676399999999994
20
0
30
0
40
1.6764000000000001
210
-0
220
0
230
1
0
CIRCLE
5
147
100
AcDbEntity
8
0
100
AcDbCircle
10
-64.176400000000001
20
-7.8590827205446392e-15
30
0
40
1.6764000000000001
210
-0
220
0
230
1
0
CIRCLE
5
148
100
AcDbEntity
8
0
100
AcDbCircle
10
-76.676400000000001
20
-9.3898406628226203e-15
30
0
40
1.6764000000000001
210
-0
220
0
230
1
0
CIRCLE
5
149
100
AcDbEntity
8
0
100
AcDbCircle
10
-101.6764
20
-1.2451356547378559e-14
30
0
40
1.6764000000000001
210
-0
220
0
230
1
0
CIRCLE
5
150
100
AcDbEntity
8
0
100
AcDbCircle
10
-151.6764
20
0
30
0
40
1.6764000000000001
210
-0
220
0
230
1
0
CIRCLE
5
151
100
AcDbEntity
8
0
100
AcDbCircle
10
-74.240027739420995
20
-42.862499999999997
30
0
40
4.8895
210
-0
220
0
230
1
0
CIRCLE
5
152
100
AcDbEntity
8
0
100
AcDbCircle
10
74.240027739420995
20
-42.862499999999997
30
0
40
4.8895
210
-0
220
0
230
1
0
CIRCLE
5
153
100
AcDbEntity
8
0
100
AcDbCircle
10
-4.7625000000000002
20
25.804311093793451
30
0
40
1.6764000000000001
210
-0
220
0
230
1
0
CIRCLE
5
154
100
AcDbEntity
8
0
100
AcDbCircle
10
4.7625000000000002
20
25.804311093793451
30
0
40
1.6764000000000001
210
-0
220
0
230
1
0
CIRCLE
5
155
100
AcDbEntity
8
0
100
AcDbCircle
10
-7.9375
20
38.119812899315548
30
0
40
1.6764000000000001
210
-0
220
0
230
1
0
CIRCLE
5
156
100
AcDbEntity
8
0
100
AcDbCircle
10
7.9375
20
38.119812899315548
30
0
40
1.6764000000000001
210
-0
220
0
230
1
0
CIRCLE
5
157
100
AcDbEntity
8
0
100
AcDbCircle
10
12.699999999999999
20
48.962100798444297
30
0
40
1.6764000000000001
210
-0
220
0
230
1
0
CIRCLE
5
158
100
AcDbEntity
8
0
100
AcDbCircle
10
17.462499999999999
20
60.452989727543802
30
0
40
1.6764000000000001
210
-0
220
0
230
1
0
CIRCLE
5
159
100
AcDbEntity
8
0
100
AcDbCircle
10
-12.699999999999999
20
48.962100798444297
30
0
40
1.6764000000000001
210
-0
220
0
230
1
0
CIRCLE
5
160
100
AcDbEntity
8
0
100
AcDbCircle
10
-17.462499999999999
20
60.452989727543802
30
0
40
1.6764000000000001
210
-0
220
0
230
1
0
CIRCLE
5
161
100
AcDbEntity
8
0
100
AcDbCircle
10
-22.225000000000001
20
70.947155012486988
30
0
40
1.6764000000000001
210
-0
220
0
230
1
0
CIRCLE
5
162
100
AcDbEntity
8
0
100
AcDbCircle
10
-1.301970074963652e-16
20
85.724999999999994
30
0
40
4.8895
210
-0
220
0
230
1
0
CIRCLE
5
163
100
AcDbEntity
8
0
100
AcDbCircle
10
0
20
100.99799540982642
30
0
40
1.6764000000000001
210
-0
220
0
230
1
0
CIRCLE
5
164
100
AcDbEntity
8
0
100
AcDbCircle
10
0
20
150.9979954098265
30
0
40
1.6764000000000001
210
-0
220
0
230
1
0
CIRCLE
5
165
100
AcDbEntity
8
0
100
AcDbCircle
10
22.225000000000001
20
70.947155012486988
30
0
40
1.6764000000000001
210
-0
220
0
230
1
0
LINE
5
166
100
AcDbEntity
8
0
100
AcDbLine
10
15.875
20
-27.496306570155951
30
0
11
34.924999999999997
21
-27.496306570155902
31
0
0
LINE
5
167
100
AcDbEntity
8
0
100
AcDbLine
10
34.924999999999997
20
-45.236786744860602
30
0
11
34.924999999999997
21
-58.651626416067998
31
0
0
ENDSEC
0
SECTION
2
OBJECTS
0
DICTIONARY
5
C
100
AcDbDictionary
3
ACAD_GROUP
350
D
3
ACAD_MLINESTYLE
350
17
0
DICTIONARY
5
D
100
AcDbDictionary
0
DICTIONARY
5
1A
330
C
100
AcDbDictionary
0
DICTIONARY
5
17
100
AcDbDictionary
0
ENDSEC
0
EOF
